<svg width="30" height="30" viewBox="0 0 30 30" fill="none" xmlns="http://www.w3.org/2000/svg">
<path fill-rule="evenodd" clip-rule="evenodd" d="M12.9697 8.46967C13.1103 8.32902 13.3011 8.25 13.5 8.25H16.5C16.6989 8.25 16.8897 8.32902 17.0303 8.46967C17.171 8.61032 17.25 8.80109 17.25 9V9.75H12.75V9C12.75 8.80109 12.829 8.61032 12.9697 8.46967ZM11.25 9.75V9C11.25 8.40326 11.4871 7.83097 11.909 7.40901C12.331 6.98705 12.9033 6.75 13.5 6.75H16.5C17.0967 6.75 17.669 6.98705 18.091 7.40901C18.5129 7.83097 18.75 8.40326 18.75 9V9.75H20.25H21.75C22.1642 9.75 22.5 10.0858 22.5 10.5C22.5 10.9142 22.1642 11.25 21.75 11.25H21V21C21 21.5967 20.7629 22.169 20.341 22.591C19.919 23.0129 19.3467 23.25 18.75 23.25H11.25C10.6533 23.25 10.081 23.0129 9.65901 22.591C9.23705 22.169 9 21.5967 9 21V11.25H8.25C7.83579 11.25 7.5 10.9142 7.5 10.5C7.5 10.0858 7.83579 9.75 8.25 9.75H9.75H11.25ZM10.5 11.25V21C10.5 21.1989 10.579 21.3897 10.7197 21.5303C10.8603 21.671 11.0511 21.75 11.25 21.75H18.75C18.9489 21.75 19.1397 21.671 19.2803 21.5303C19.421 21.3897 19.5 21.1989 19.5 21V11.25H10.5ZM17.25 14.25V18.75C17.25 19.1642 16.9142 19.5 16.5 19.5C16.0858 19.5 15.75 19.1642 15.75 18.75V14.25C15.75 13.8358 16.0858 13.5 16.5 13.5C16.9142 13.5 17.25 13.8358 17.25 14.25ZM14.25 14.25C14.25 13.8358 13.9142 13.5 13.5 13.5C13.0858 13.5 12.75 13.8358 12.75 14.25V18.75C12.75 19.1642 13.0858 19.5 13.5 19.5C13.9142 19.5 14.25 19.1642 14.25 18.75V14.25Z" fill="#D11313"/>
<rect x="0.5" y="0.5" width="29" height="29" rx="2.5" stroke="#D11313"/>
</svg>
