<svg width="30" height="30" viewBox="0 0 30 30" fill="none" xmlns="http://www.w3.org/2000/svg">
<g clip-path="url(#clip0_11480_2486)">
<path fill-rule="evenodd" clip-rule="evenodd" d="M20.4053 8.4055C20.5631 8.24778 20.777 8.15918 21 8.15918C21.2231 8.15918 21.437 8.24778 21.5947 8.4055C21.7524 8.56322 21.841 8.77713 21.841 9.00017C21.841 9.22321 21.7524 9.43712 21.5947 9.59484L14.6166 16.5729L13.0308 16.9694L13.4272 15.3836L20.4053 8.4055ZM21 6.65918C20.3791 6.65918 19.7837 6.90582 19.3447 7.34484L12.2197 14.4698C12.1236 14.566 12.0554 14.6864 12.0224 14.8183L11.2724 17.8183C11.2085 18.0738 11.2834 18.3442 11.4697 18.5305C11.656 18.7168 11.9263 18.7917 12.1819 18.7278L15.1819 17.9778C15.3138 17.9448 15.4342 17.8766 15.5303 17.7805L22.6553 10.6555C23.0944 10.2165 23.341 9.62104 23.341 9.00017C23.341 8.3793 23.0944 7.78386 22.6553 7.34484C22.2163 6.90582 21.6209 6.65918 21 6.65918ZM9 8.25017C8.40326 8.25017 7.83097 8.48722 7.40901 8.90918C6.98705 9.33114 6.75 9.90343 6.75 10.5002V21.0002C6.75 21.5969 6.98705 22.1692 7.40901 22.5912C7.83097 23.0131 8.40326 23.2502 9 23.2502H19.5C20.0967 23.2502 20.669 23.0131 21.091 22.5912C21.5129 22.1692 21.75 21.5969 21.75 21.0002V15.7502C21.75 15.336 21.4142 15.0002 21 15.0002C20.5858 15.0002 20.25 15.336 20.25 15.7502V21.0002C20.25 21.1991 20.171 21.3898 20.0303 21.5305C19.8897 21.6712 19.6989 21.7502 19.5 21.7502H9C8.80109 21.7502 8.61032 21.6712 8.46967 21.5305C8.32902 21.3898 8.25 21.1991 8.25 21.0002V10.5002C8.25 10.3013 8.32902 10.1105 8.46967 9.96984C8.61032 9.82919 8.80109 9.75017 9 9.75017H14.25C14.6642 9.75017 15 9.41439 15 9.00017C15 8.58596 14.6642 8.25017 14.25 8.25017H9Z" fill="#264CA1"/>
</g>
<rect x="0.5" y="0.5" width="29" height="29" rx="2.5" stroke="#264CA1"/>
<defs>
<clipPath id="clip0_11480_2486">
<rect width="18" height="18" fill="white" transform="translate(6 6)"/>
</clipPath>
</defs>
</svg>
